#Comment line ignore any data following # character 
#Hierarchical Translation and Rotation (.htr) file 
[Header]	
#Header keywords are followed by a single value 
FileType HTR		#Single word string
DataType HTRS		#Translation followed by rotation and scale data
FileVersion 1		#integer
NumSegments 84		#integer
NumFrames 2		#integer
DataFrameRate 30		#integer, data frame rate in this file
EulerRotationOrder ZYX
CalibrationUnits mm
RotationUnits Degrees
GlobalAxisofGravity Y
BoneLengthAxis Y
ScaleFactor 1.00
[SegmentNames&Hierarchy]
#CHILD	PARENT
MASTER GLOBAL
root MASTER
chest root
L_mid_tent01 root
R_mid_tent01 root
spine01 root
Bip01_Neck chest
L_humerus chest
R_humerus chest
weapon_bone chest
Bip01_Head Bip01_Neck
eye_left_bone Bip01_Head
eye_right_bone Bip01_Head
L_forearm L_humerus
L_front_hand L_forearm
L_weapon_bone L_forearm
L_front_hand01_01 L_front_hand
L_front_hand02_01 L_front_hand
L_front_hand03_01 L_front_hand
L_front_hand01_02 L_front_hand01_01
L_front_hand02_02 L_front_hand02_01
L_front_hand03_02 L_front_hand03_01
R_forearm R_humerus
R_front_hand R_forearm
R_weapon_bone R_forearm
R_front_hand01_01 R_front_hand
R_front_hand02_01 R_front_hand
R_front_hand03_01 R_front_hand
R_front_hand01_02 R_front_hand01_01
R_front_hand02_02 R_front_hand02_01
R_front_hand03_02 R_front_hand03_01
null_rope01_connect L_mid_tent01
Rope1_Seg01 null_rope01_connect
Rope1_Seg02 Rope1_Seg01
Rope1_Seg03 Rope1_Seg02
Rope1_Seg04 Rope1_Seg03
Rope1_Seg05 Rope1_Seg04
Rope1_Seg06 Rope1_Seg05
Rope1_Seg07 Rope1_Seg06
Rope1_Seg09 Rope1_Seg07
L_mid_hand01 Rope1_Seg09
L_mid_hand02 Rope1_Seg09
L_mid_hand03 Rope1_Seg09
null_rope02_connect R_mid_tent01
Rope2_Seg01 null_rope02_connect
Rope2_Seg02 Rope2_Seg01
Rope2_Seg03 Rope2_Seg02
Rope2_Seg04 Rope2_Seg03
Rope2_Seg05 Rope2_Seg04
Rope2_Seg06 Rope2_Seg05
Rope2_Seg07 Rope2_Seg06
Rope2_Seg09 Rope2_Seg07
R_mid_hand01 Rope2_Seg09
R_mid_hand02 Rope2_Seg09
R_mid_hand03 Rope2_Seg09
spine02 spine01
spine03 spine02
pelvis spine03
null_rope03_connect pelvis
null_rope04_connect pelvis
Rope3_Seg01 null_rope03_connect
Rope3_Seg02 Rope3_Seg01
Rope3_Seg03 Rope3_Seg02
Rope3_Seg04 Rope3_Seg03
Rope3_Seg05 Rope3_Seg04
Rope3_Seg06 Rope3_Seg05
Rope3_Seg07 Rope3_Seg06
Rope3_Seg08 Rope3_Seg07
Rope3_Seg09 Rope3_Seg08
R_rear_hand01 Rope3_Seg09
R_rear_hand02 Rope3_Seg09
R_rear_hand03 Rope3_Seg09
Rope4_Seg01 null_rope04_connect
Rope4_Seg02 Rope4_Seg01
Rope4_Seg03 Rope4_Seg02
Rope4_Seg04 Rope4_Seg03
Rope4_Seg05 Rope4_Seg04
Rope4_Seg06 Rope4_Seg05
Rope4_Seg07 Rope4_Seg06
Rope4_Seg08 Rope4_Seg07
Rope4_Seg09 Rope4_Seg08
L_rear_hand01 Rope4_Seg09
L_rear_hand02 Rope4_Seg09
L_rear_hand03 Rope4_Seg09
[BasePosition]
#SegmentName Tx, Ty, Tz, Rx, Ry, Rz, BoneLength
MASTER 0.000000 0.000000 0.000000 -90.000000 0.000000 0.000000 10.000000 
root 0.000000 0.000000 0.000000 0.000000 0.000000 0.000000 10.000000 
chest 0.000000 0.000000 0.000000 0.000000 0.000000 0.000000 10.000000 
L_mid_tent01 0.000000 0.000000 0.000000 0.000000 0.000000 0.000000 10.000000 
R_mid_tent01 0.000000 0.000000 0.000000 0.000000 0.000000 0.000000 10.000000 
spine01 0.000000 0.000000 0.000000 0.000000 0.000000 0.000000 10.000000 
Bip01_Neck 0.000000 0.000000 0.000000 0.000000 0.000000 0.000000 10.000000 
L_humerus 0.000000 0.000000 0.000000 0.000000 0.000000 0.000000 10.000000 
R_humerus 0.000000 0.000000 0.000000 0.000000 0.000000 0.000000 10.000000 
weapon_bone 0.000000 0.000000 0.000000 0.000000 0.000000 0.000000 10.000000 
Bip01_Head 0.000000 0.000000 0.000000 0.000000 0.000000 0.000000 10.000000 
eye_left_bone 0.000000 0.000000 0.000000 0.000000 0.000000 0.000000 10.000000 
eye_right_bone 0.000000 0.000000 0.000000 0.000000 0.000000 0.000000 10.000000 
L_forearm 0.000000 0.000000 0.000000 0.000000 0.000000 0.000000 10.000000 
L_front_hand 0.000000 0.000000 0.000000 0.000000 0.000000 0.000000 10.000000 
L_weapon_bone 0.000000 0.000000 0.000000 0.000000 0.000000 0.000000 10.000000 
L_front_hand01_01 0.000000 0.000000 0.000000 0.000000 0.000000 0.000000 10.000000 
L_front_hand02_01 0.000000 0.000000 0.000000 0.000000 0.000000 0.000000 10.000000 
L_front_hand03_01 0.000000 0.000000 0.000000 0.000000 0.000000 0.000000 10.000000 
L_front_hand01_02 0.000000 0.000000 0.000000 0.000000 0.000000 0.000000 10.000000 
L_front_hand02_02 0.000000 0.000000 0.000000 0.000000 0.000000 0.000000 10.000000 
L_front_hand03_02 0.000000 0.000000 0.000000 0.000000 0.000000 0.000000 10.000000 
R_forearm 0.000000 0.000000 0.000000 0.000000 0.000000 0.000000 10.000000 
R_front_hand 0.000000 0.000000 0.000000 0.000000 0.000000 0.000000 10.000000 
R_weapon_bone 0.000000 0.000000 0.000000 0.000000 0.000000 0.000000 10.000000 
R_front_hand01_01 0.000000 0.000000 0.000000 0.000000 0.000000 0.000000 10.000000 
R_front_hand02_01 0.000000 0.000000 0.000000 0.000000 0.000000 0.000000 10.000000 
R_front_hand03_01 0.000000 0.000000 0.000000 0.000000 0.000000 0.000000 10.000000 
R_front_hand01_02 0.000000 0.000000 0.000000 0.000000 0.000000 0.000000 10.000000 
R_front_hand02_02 0.000000 0.000000 0.000000 0.000000 0.000000 0.000000 10.000000 
R_front_hand03_02 0.000000 0.000000 0.000000 0.000000 0.000000 0.000000 10.000000 
null_rope01_connect 0.000000 0.000000 0.000000 0.000000 0.000000 0.000000 10.000000 
Rope1_Seg01 0.000000 0.000000 0.000000 0.000000 0.000000 0.000000 10.000000 
Rope1_Seg02 0.000000 0.000000 0.000000 0.000000 0.000000 0.000000 10.000000 
Rope1_Seg03 0.000000 0.000000 0.000000 0.000000 0.000000 0.000000 10.000000 
Rope1_Seg04 0.000000 0.000000 0.000000 0.000000 0.000000 0.000000 10.000000 
Rope1_Seg05 0.000000 0.000000 0.000000 0.000000 0.000000 0.000000 10.000000 
Rope1_Seg06 0.000000 0.000000 0.000000 0.000000 0.000000 0.000000 10.000000 
Rope1_Seg07 0.000000 0.000000 0.000000 0.000000 0.000000 0.000000 10.000000 
Rope1_Seg09 0.000000 0.000000 0.000000 0.000000 0.000000 0.000000 10.000000 
L_mid_hand01 0.000000 0.000000 0.000000 0.000000 0.000000 0.000000 10.000000 
L_mid_hand02 0.000000 0.000000 0.000000 0.000000 0.000000 0.000000 10.000000 
L_mid_hand03 0.000000 0.000000 0.000000 0.000000 0.000000 0.000000 10.000000 
null_rope02_connect 0.000000 0.000000 0.000000 0.000000 0.000000 0.000000 10.000000 
Rope2_Seg01 0.000000 0.000000 0.000000 0.000000 0.000000 0.000000 10.000000 
Rope2_Seg02 0.000000 0.000000 0.000000 0.000000 0.000000 0.000000 10.000000 
Rope2_Seg03 0.000000 0.000000 0.000000 0.000000 0.000000 0.000000 10.000000 
Rope2_Seg04 0.000000 0.000000 0.000000 0.000000 0.000000 0.000000 10.000000 
Rope2_Seg05 0.000000 0.000000 0.000000 0.000000 0.000000 0.000000 10.000000 
Rope2_Seg06 0.000000 0.000000 0.000000 0.000000 0.000000 0.000000 10.000000 
Rope2_Seg07 0.000000 0.000000 0.000000 0.000000 0.000000 0.000000 10.000000 
Rope2_Seg09 0.000000 0.000000 0.000000 0.000000 0.000000 0.000000 10.000000 
R_mid_hand01 0.000000 0.000000 0.000000 0.000000 0.000000 0.000000 10.000000 
R_mid_hand02 0.000000 0.000000 0.000000 0.000000 0.000000 0.000000 10.000000 
R_mid_hand03 0.000000 0.000000 0.000000 0.000000 0.000000 0.000000 10.000000 
spine02 0.000000 0.000000 0.000000 0.000000 0.000000 0.000000 10.000000 
spine03 0.000000 0.000000 0.000000 0.000000 0.000000 0.000000 10.000000 
pelvis 0.000000 0.000000 0.000000 0.000000 0.000000 0.000000 10.000000 
null_rope03_connect 0.000000 0.000000 0.000000 0.000000 0.000000 0.000000 10.000000 
null_rope04_connect 0.000000 0.000000 0.000000 0.000000 0.000000 0.000000 10.000000 
Rope3_Seg01 0.000000 0.000000 0.000000 0.000000 0.000000 0.000000 10.000000 
Rope3_Seg02 0.000000 0.000000 0.000000 0.000000 0.000000 0.000000 10.000000 
Rope3_Seg03 0.000000 0.000000 0.000000 0.000000 0.000000 0.000000 10.000000 
Rope3_Seg04 0.000000 0.000000 0.000000 0.000000 0.000000 0.000000 10.000000 
Rope3_Seg05 0.000000 0.000000 0.000000 0.000000 0.000000 0.000000 10.000000 
Rope3_Seg06 0.000000 0.000000 0.000000 0.000000 0.000000 0.000000 10.000000 
Rope3_Seg07 0.000000 0.000000 0.000000 0.000000 0.000000 0.000000 10.000000 
Rope3_Seg08 0.000000 0.000000 0.000000 0.000000 0.000000 0.000000 10.000000 
Rope3_Seg09 0.000000 0.000000 0.000000 0.000000 0.000000 0.000000 10.000000 
R_rear_hand01 0.000000 0.000000 0.000000 0.000000 0.000000 0.000000 10.000000 
R_rear_hand02 0.000000 0.000000 0.000000 0.000000 0.000000 0.000000 10.000000 
R_rear_hand03 0.000000 0.000000 0.000000 0.000000 0.000000 0.000000 10.000000 
Rope4_Seg01 0.000000 0.000000 0.000000 0.000000 0.000000 0.000000 10.000000 
Rope4_Seg02 0.000000 0.000000 0.000000 0.000000 0.000000 0.000000 10.000000 
Rope4_Seg03 0.000000 0.000000 0.000000 0.000000 0.000000 0.000000 10.000000 
Rope4_Seg04 0.000000 0.000000 0.000000 0.000000 0.000000 0.000000 10.000000 
Rope4_Seg05 0.000000 0.000000 0.000000 0.000000 0.000000 0.000000 10.000000 
Rope4_Seg06 0.000000 0.000000 0.000000 0.000000 0.000000 0.000000 10.000000 
Rope4_Seg07 0.000000 0.000000 0.000000 0.000000 0.000000 0.000000 10.000000 
Rope4_Seg08 0.000000 0.000000 0.000000 0.000000 0.000000 0.000000 10.000000 
Rope4_Seg09 0.000000 0.000000 0.000000 0.000000 0.000000 0.000000 10.000000 
L_rear_hand01 0.000000 0.000000 0.000000 0.000000 0.000000 0.000000 10.000000 
L_rear_hand02 0.000000 0.000000 0.000000 0.000000 0.000000 0.000000 10.000000 
L_rear_hand03 0.000000 0.000000 0.000000 0.000000 0.000000 0.000000 10.000000 
#Beginning of Data. Separated by tabs
#Fr	Tx	Ty	Tz	Rx	Ry	Rz	SF
[MASTER]
48 -447.850464 5324.102539 3397.800049 0.001660 0.001660 0.001660 6331.799316
49 -752.693787 4844.658203 3444.871826 0.001660 0.001660 0.001660 5992.028320
[root]
48 -47.394382 -62.822266 1500.058838 -46.357101 -18.109159 -141.337769 1502.121704
49 -62.161919 -62.822266 1500.069824 -41.086269 -16.077942 -147.491196 1502.671143
[chest]
48 -84.512650 -34.090519 0.000000 -1.258438 -36.468464 141.492950 91.129311
49 -84.512650 -34.090519 0.000000 -0.321467 -39.087208 137.605698 91.129311
[L_mid_tent01]
48 27.299566 22.177504 -249.918243 81.912407 52.172256 162.428741 252.381134
49 27.299568 22.177504 -249.918243 86.085808 49.694454 167.597183 252.381134
[R_mid_tent01]
48 23.228794 24.509907 226.238495 160.524200 -25.626980 86.316811 228.744751
49 23.228794 24.509907 226.238495 160.650131 -25.636600 86.028534 228.744751
[spine01]
48 -0.361383 -0.195265 0.000000 0.001845 0.001451 13.654367 0.410763
49 -0.361383 -0.195265 0.000000 0.001845 0.001451 13.654368 0.410763
[Bip01_Neck]
48 165.484543 71.581718 0.000119 176.643677 -1.657967 43.431911 180.302734
49 165.484543 71.581718 0.000119 176.643677 -1.657967 43.431911 180.302734
[L_humerus]
48 -13.983130 -135.272980 -120.471481 -135.112610 64.049507 -39.091000 181.680161
49 -13.983130 -135.272980 -120.471481 -137.342255 62.552616 -41.316376 181.680161
[R_humerus]
48 -13.983309 -135.273102 125.287651 116.033890 -27.662174 -7.062553 184.909012
49 -13.983309 -135.273102 125.287651 117.865570 -26.982870 -9.003580 184.909012
[weapon_bone]
48 235.964890 -300.705902 0.000000 0.000000 -89.951546 -128.212341 382.234833
49 235.964890 -300.705902 0.000000 0.000000 -89.951546 -128.212341 382.234833
[Bip01_Head]
48 213.441528 185.721970 11.691450 7.992126 1.201684 -2.978726 283.172424
49 213.441574 185.721863 11.692871 8.004295 0.846607 -0.172033 283.172455
[eye_left_bone]
48 -24.626970 125.451866 -64.772606 0.000000 -90.000000 -99.840431 143.318359
49 -24.626970 125.451866 -64.772606 0.000000 -90.000000 -99.840431 143.318359
[eye_right_bone]
48 -24.626970 125.451866 64.327362 0.000000 -89.965736 80.156380 143.117676
49 -24.626970 125.451866 64.327362 0.000000 -89.965736 80.156380 143.117676
[L_forearm]
48 322.776093 0.000000 -0.000119 0.000119 -0.002344 -95.807457 322.776093
49 322.776093 0.000000 -0.000119 0.000119 -0.002344 -95.807457 322.776093
[L_front_hand]
48 241.149185 -0.042021 -3.300071 149.893951 -1.837326 -27.423069 241.171753
49 241.149185 -0.042021 -3.300071 149.893951 -1.837326 -27.423067 241.171753
[L_weapon_bone]
48 156.183838 0.000000 0.000000 0.000014 0.000007 0.000001 156.183838
49 156.183838 0.000000 0.000000 0.000014 0.000007 0.000001 156.183838
[L_front_hand01_01]
48 86.095154 20.947098 -0.655860 -0.366594 -0.477154 75.385582 88.609184
49 86.095154 20.947098 -0.655860 -0.366594 -0.477154 75.385574 88.609184
[L_front_hand02_01]
48 86.935165 -11.437475 24.513514 154.399811 -59.883842 -61.369587 91.046425
49 86.935165 -11.437475 24.513514 154.399796 -59.883835 -61.369587 91.046425
[L_front_hand03_01]
48 86.637497 -14.123976 -20.424902 -153.913849 58.118130 -62.702866 90.126129
49 86.637497 -14.123976 -20.424902 -153.913849 58.118122 -62.702866 90.126129
[L_front_hand01_02]
48 71.020905 -0.000179 0.000030 0.000174 0.002341 -81.515167 71.020905
49 71.020905 -0.000179 0.000030 0.000334 -0.002323 -106.379684 71.020905
[L_front_hand02_02]
48 71.020927 -0.000119 0.000060 0.000174 0.002341 -81.515167 71.020927
49 71.020927 -0.000119 0.000060 0.000334 -0.002323 -106.379684 71.020927
[L_front_hand03_02]
48 71.020905 -0.000060 0.000060 0.000174 0.002341 -81.515167 71.020905
49 71.020905 -0.000060 0.000060 0.000334 -0.002323 -106.379684 71.020905
[R_forearm]
48 322.776428 -0.000060 0.000030 0.169426 -0.128619 -53.645554 322.776428
49 322.776428 -0.000060 0.000030 0.166161 -0.131077 -52.720043 322.776428
[R_front_hand]
48 238.847015 -0.006795 2.210259 -8.879457 -10.642941 -26.315098 238.857239
49 238.847015 -0.006795 2.210259 -8.879457 -10.642941 -26.315098 238.857239
[R_weapon_bone]
48 155.664093 0.002503 -0.000030 0.003487 0.001180 -90.988930 155.664078
49 155.664093 0.002503 -0.000030 0.003487 0.001180 -90.988930 155.664078
[R_front_hand01_01]
48 87.624611 14.231146 22.918642 -154.633499 -59.950634 61.746063 91.683487
49 87.624611 14.231146 22.918642 -154.633499 -59.950619 61.746044 91.683487
[R_front_hand02_01]
48 89.356956 14.367283 -19.491137 154.602661 58.302849 63.744381 92.579636
49 89.356956 14.367283 -19.491137 154.602661 58.302849 63.744389 92.579636
[R_front_hand03_01]
48 87.286232 -22.307278 -0.143439 0.162155 -0.423168 -75.767921 90.091743
49 87.286232 -22.307278 -0.143439 0.162155 -0.423168 -75.767921 90.091743
[R_front_hand01_02]
48 71.020905 0.000060 0.000119 0.002343 0.000140 83.175255 71.020905
49 71.020905 0.000060 0.000119 0.002323 -0.000334 106.381714 71.020905
[R_front_hand02_02]
48 71.020844 -0.000030 -0.000119 0.002343 0.000140 83.175255 71.020836
49 71.020844 -0.000030 -0.000119 0.002323 -0.000334 106.381714 71.020836
[R_front_hand03_02]
48 71.020905 0.000000 0.000030 0.002343 0.000140 83.175255 71.020905
49 71.020905 0.000000 0.000030 0.002323 -0.000334 106.381714 71.020905
[null_rope01_connect]
48 328.732483 0.000000 -0.000238 -124.257729 -9.205064 90.475082 328.732483
49 328.732483 0.000000 -0.000238 -123.397148 -7.980560 81.684166 328.732483
[Rope1_Seg01]
48 0.000000 0.000000 0.000000 78.936974 -10.035057 69.357384 0.000000
49 0.000000 0.000000 0.000000 93.420006 -21.256964 63.513344 0.000000
[Rope1_Seg02]
48 139.999863 -0.000179 0.000000 -35.996895 -10.211361 -0.039236 139.999863
49 139.999863 -0.000179 0.000000 -21.644781 -2.038512 0.628183 139.999863
[Rope1_Seg03]
48 139.999924 0.000060 -0.000060 -51.214851 -11.965309 -8.670560 139.999924
49 139.999924 0.000060 -0.000060 -62.344204 -2.916718 -0.228116 139.999924
[Rope1_Seg04]
48 139.999924 -0.000060 -0.000119 16.759699 0.924522 5.758977 139.999924
49 139.999924 -0.000060 -0.000119 -45.684967 -2.236008 -4.877029 139.999924
[Rope1_Seg05]
48 139.999832 0.000119 -0.000060 18.418186 1.966351 4.520261 139.999832
49 139.999832 0.000119 -0.000060 -13.751402 4.188429 -11.211581 139.999832
[Rope1_Seg06]
48 139.999954 0.000119 -0.000060 7.376403 1.249368 1.326351 139.999954
49 139.999954 0.000119 -0.000060 9.220099 -1.554647 5.192775 139.999954
[Rope1_Seg07]
48 139.999985 0.000060 0.000000 4.643250 0.892665 0.730970 139.999985
49 139.999985 0.000060 0.000000 15.449618 -1.347403 5.301483 139.999985
[Rope1_Seg09]
48 121.602913 0.000119 -0.000089 -89.793175 -1.359789 0.847147 121.602913
49 121.602913 0.000119 -0.000089 -89.793175 -1.359789 0.847147 121.602913
[L_mid_hand01]
48 103.859421 1.038730 8.195221 130.544373 -67.584534 -38.866943 104.187431
49 103.859421 1.038730 8.195221 130.544373 -67.584534 -38.866943 104.187431
[L_mid_hand02]
48 105.572853 -4.139662 -10.864139 -168.923172 43.409309 -73.498894 106.211075
49 105.572853 -4.139662 -10.864139 -168.923172 43.409309 -73.498886 106.211075
[L_mid_hand03]
48 104.641464 17.579376 -3.913581 -6.012627 17.808174 74.893669 106.179977
49 104.641464 17.579376 -3.913581 -6.012627 17.808174 74.893669 106.179977
[null_rope02_connect]
48 328.732849 0.000179 -0.000119 -171.315155 43.990089 -50.779186 328.732849
49 328.732849 0.000179 -0.000119 -173.154388 40.110374 -58.053043 328.732849
[Rope2_Seg01]
48 0.000177 0.000220 0.000000 -51.777756 -27.961380 54.013100 0.000282
49 0.000179 0.000221 0.000000 -51.601185 -15.633313 67.111206 0.000284
[Rope2_Seg02]
48 139.999741 -0.000060 -0.000119 4.874671 3.991138 15.342594 139.999756
49 139.999741 -0.000060 -0.000119 2.856517 5.138302 4.974553 139.999756
[Rope2_Seg03]
48 140.000107 0.000030 0.000000 1.588793 0.950769 5.111197 140.000107
49 140.000107 0.000030 0.000000 1.757873 4.262250 3.284841 140.000107
[Rope2_Seg04]
48 139.999802 0.000000 -0.000060 2.049721 4.106226 5.031217 139.999802
49 139.999802 0.000000 -0.000060 1.027691 3.531245 1.978167 139.999802
[Rope2_Seg05]
48 139.999985 -0.000060 0.000119 1.866653 5.384882 4.879218 139.999985
49 139.999985 -0.000060 0.000119 1.229929 2.425651 3.778108 139.999985
[Rope2_Seg06]
48 139.999893 -0.000030 -0.000119 0.858690 3.106702 2.949365 139.999893
49 139.999893 -0.000030 -0.000119 1.344912 1.728393 4.707380 139.999893
[Rope2_Seg07]
48 139.999893 0.000060 -0.000060 0.495624 2.174349 2.044262 139.999893
49 139.999893 0.000060 -0.000060 0.887036 1.482147 3.040409 139.999893
[Rope2_Seg09]
48 121.338966 0.000089 -0.000060 33.793236 -1.359788 -0.847141 121.338966
49 121.338966 0.000089 -0.000060 33.793236 -1.359788 -0.847141 121.338966
[R_mid_hand01]
48 104.680779 11.144459 -10.335981 -16.212063 45.237247 70.462852 105.778534
49 104.680779 11.144459 -10.335981 -16.212063 45.237247 70.462852 105.778534
[R_mid_hand02]
48 104.070427 2.443552 8.231699 49.067368 -67.749771 39.286453 104.424065
49 104.070427 2.443552 8.231699 49.067368 -67.749771 39.286453 104.424065
[R_mid_hand03]
48 106.028137 -11.221827 -5.996406 -177.101105 15.551026 -76.585571 106.788818
49 106.028137 -11.221827 -5.996406 -177.101105 15.551026 -76.585571 106.788818
[spine02]
48 129.756927 0.001550 0.000119 -1.023899 -3.926965 6.770993 129.756927
49 129.756927 0.001550 0.000119 -1.023899 -3.926964 6.770991 129.756927
[spine03]
48 78.613777 0.087347 -4.898788 1.040681 4.146420 4.212376 78.766312
49 78.613777 0.087349 -4.898787 1.040680 4.146419 4.212375 78.766312
[pelvis]
48 169.435242 0.051022 0.000000 0.019518 -0.190233 -10.721436 169.435257
49 169.435242 0.051022 0.000000 0.019518 -0.190233 -10.721436 169.435257
[null_rope03_connect]
48 -1.257226 -2.466202 137.391083 -33.670200 -38.396271 147.393005 137.418976
49 -1.257226 -2.466202 137.391083 -31.731426 -32.057377 149.094025 137.418976
[null_rope04_connect]
48 -1.259640 -2.480268 -137.844437 -33.670200 -38.396271 147.393005 137.872513
49 -1.259640 -2.480268 -137.844437 -31.731426 -32.057377 149.094025 137.872513
[Rope3_Seg01]
48 -0.000011 0.000024 -0.000153 16.990139 -0.209183 104.209663 0.000155
49 -0.000011 0.000026 -0.000153 17.000597 -0.137968 100.230164 0.000155
[Rope3_Seg02]
48 139.999924 -0.000119 0.000060 3.957924 -21.509417 -10.422980 139.999924
49 139.999924 -0.000119 0.000060 0.832910 -7.957059 -15.241750 139.999924
[Rope3_Seg03]
48 139.999924 -0.000119 0.000119 15.256433 -30.392956 -6.682023 139.999924
49 139.999924 -0.000119 0.000119 1.199088 -7.692992 -10.234783 139.999924
[Rope3_Seg04]
48 139.999924 0.000119 0.000000 -18.535387 6.705087 -19.981676 139.999924
49 139.999924 0.000119 0.000000 -1.986417 -2.413009 -8.771726 139.999924
[Rope3_Seg05]
48 139.999924 -0.000238 0.000060 -11.416080 7.526506 -6.457273 139.999924
49 139.999924 -0.000238 0.000060 -4.755035 2.406477 -5.699720 139.999924
[Rope3_Seg06]
48 139.999893 -0.000119 -0.000060 -3.447515 2.552881 -2.223257 139.999893
49 139.999893 -0.000119 -0.000060 -2.174485 1.133675 -2.923721 139.999893
[Rope3_Seg07]
48 139.999771 0.000060 -0.000119 -1.977072 1.715156 -1.324088 139.999771
49 139.999771 0.000060 -0.000119 -1.145850 0.585782 -1.933113 139.999771
[Rope3_Seg08]
48 139.999985 -0.000060 0.000000 -0.959933 1.058683 -0.759029 139.999985
49 139.999985 -0.000060 0.000000 -0.546444 0.391608 -1.197032 139.999985
[Rope3_Seg09]
48 90.185997 -0.000179 -0.000060 89.793228 -1.359877 -0.847183 90.185997
49 90.185997 -0.000179 -0.000060 89.793228 -1.359877 -0.847183 90.185997
[R_rear_hand01]
48 103.366196 -6.073594 -10.757982 -177.714203 24.565960 -73.910950 104.101845
49 103.366196 -6.073594 -10.757982 -177.714203 24.565960 -73.910950 104.101845
[R_rear_hand02]
48 100.509819 12.039542 -7.992327 -12.874829 36.868488 72.167213 101.543350
49 100.509819 12.039542 -7.992327 -12.874829 36.868488 72.167213 101.543350
[R_rear_hand03]
48 101.539970 5.215704 5.435467 71.484581 -71.816628 21.513813 101.819031
49 101.539970 5.215704 5.435467 71.484581 -71.816628 21.513813 101.819031
[Rope4_Seg01]
48 0.000000 0.000067 0.000000 -94.330681 1.222849 113.676369 0.000067
49 0.000000 0.000068 0.000000 -93.130028 5.371411 109.506180 0.000068
[Rope4_Seg02]
48 139.999985 0.000060 0.000119 -5.519555 13.004201 -4.630316 139.999985
49 139.999985 0.000060 0.000119 -3.728237 17.255325 -2.320975 139.999985
[Rope4_Seg03]
48 139.999924 0.000000 -0.000238 -8.324295 36.326855 -13.460135 139.999924
49 139.999924 0.000000 -0.000238 -0.214580 33.501499 -2.211652 139.999924
[Rope4_Seg04]
48 139.999985 0.000000 0.000119 -0.575360 0.908439 5.899936 139.999985
49 139.999985 0.000000 0.000119 5.512492 22.115482 -2.169447 139.999985
[Rope4_Seg05]
48 139.999802 -0.000060 -0.000119 -0.664651 -4.678199 2.855426 139.999802
49 139.999802 -0.000060 -0.000119 -2.511320 -9.250328 0.636882 139.999802
[Rope4_Seg06]
48 139.999924 0.000000 0.000060 -0.014117 -0.799501 0.842532 139.999924
49 139.999924 0.000000 0.000060 -0.294573 -2.115340 -0.032411 139.999924
[Rope4_Seg07]
48 139.999802 0.000000 0.000000 0.068591 -0.503122 0.525593 139.999802
49 139.999802 0.000000 0.000000 0.061451 -0.601688 -0.087655 139.999802
[Rope4_Seg08]
48 139.999924 0.000000 0.000119 -1.492824 -0.300871 0.317177 139.999924
49 139.999924 0.000000 0.000119 -1.491834 -0.355166 -0.053049 139.999924
[Rope4_Seg09]
48 90.185791 0.000060 0.000060 -135.617828 2.228885 0.850567 90.185791
49 90.185791 0.000060 0.000060 -135.617828 2.228885 0.850567 90.185791
[L_rear_hand01]
48 101.696655 -8.392275 -7.654577 -12.874829 -36.868488 107.832764 102.329041
49 101.696655 -8.392275 -7.654577 -12.874829 -36.868488 107.832764 102.329041
[L_rear_hand02]
48 102.726799 -1.568258 5.773216 71.484581 71.816628 158.486160 102.900848
49 102.726799 -1.568258 5.773216 71.484619 71.816643 158.486160 102.900848
[L_rear_hand03]
48 104.552910 9.721220 -10.420293 -177.714203 -24.565960 -106.089035 105.519653
49 104.552910 9.721220 -10.420293 -177.714203 -24.565966 -106.089035 105.519653
